<?xml version="1.0" standalone="no"?>
<!DOCTYPE svg PUBLIC "-//W3C//DTD SVG 20010904//EN"
 "http://www.w3.org/TR/2001/REC-SVG-20010904/DTD/svg10.dtd">
<svg version="1.0" xmlns="http://www.w3.org/2000/svg"
 width="700.000000pt" height="700.000000pt" viewBox="0 0 700.000000 700.000000"
 preserveAspectRatio="xMidYMid meet">
  <metadata>Created by potrace 1.14, written by Peter Selinger 2001-2017</metadata>
  <g transform="translate(0.000000,700.000000) scale(0.100000,-0.100000)"
  fill="#000000" stroke="none">
    <path d="M1980 6515 c-457 -56 -836 -205 -1175 -464 -82 -62 -255 -231 -327
    -318 -125 -153 -245 -356 -318 -538 -226 -560 -209 -1247 44 -1780 251 -527
    700 -899 1264 -1045 266 -69 606 -79 870 -24 568 117 1025 510 1197 1028 51
    152 66 242 72 422 9 265 -29 448 -136 669 -68 139 -131 229 -233 334 -173 177
    -385 293 -630 347 -100 22 -331 28 -438 12 l-85 -13 -3 -142 -3 -143 58 0
    c114 -1 253 -42 371 -111 78 -46 238 -208 285 -289 50 -87 92 -197 112 -299
    23 -112 16 -315 -14 -416 -86 -290 -312 -504 -612 -579 -389 -97 -815 30
    -1095 326 -216 229 -324 514 -324 858 0 163 19 287 66 429 152 460 513 770
    1030 883 l99 22 1830 4 c1350 2 1846 0 1890 -8 86 -17 158 -56 215 -116 66
    -70 91 -128 97 -230 10 -147 -43 -263 -191 -422 -40 -42 -945 -1024 -2011
    -2182 -1066 -1158 -1952 -2120 -1968 -2137 l-31 -33 600 1 599 0 1813 1982
    c997 1090 1832 2009 1857 2042 102 138 177 302 218 479 28 124 30 400 4 526
    -52 244 -148 429 -306 588 -76 77 -199 166 -296 215 -74 37 -213 84 -323 109
    l-97 22 -1935 2 c-1527 2 -1957 -1 -2040 -11z"/>
  </g>
</svg>
